%TF.GenerationSoftware,KiCad,Pcbnew,9.0.7*%
%TF.CreationDate,2026-01-18T00:15:26-06:00*%
%TF.ProjectId,Beginning Project KiCad,42656769-6e6e-4696-9e67-2050726f6a65,0*%
%TF.SameCoordinates,Original*%
%TF.FileFunction,Legend,Bot*%
%TF.FilePolarity,Positive*%
%FSLAX46Y46*%
G04 Gerber Fmt 4.6, Leading zero omitted, Abs format (unit mm)*
G04 Created by KiCad (PCBNEW 9.0.7) date 2026-01-18 00:15:26*
%MOMM*%
%LPD*%
G01*
G04 APERTURE LIST*
%ADD10C,0.150000*%
%ADD11C,0.120000*%
G04 APERTURE END LIST*
D10*
X139465714Y-87051009D02*
X139322857Y-87098628D01*
X139322857Y-87098628D02*
X139275238Y-87146247D01*
X139275238Y-87146247D02*
X139227619Y-87241485D01*
X139227619Y-87241485D02*
X139227619Y-87384342D01*
X139227619Y-87384342D02*
X139275238Y-87479580D01*
X139275238Y-87479580D02*
X139322857Y-87527200D01*
X139322857Y-87527200D02*
X139418095Y-87574819D01*
X139418095Y-87574819D02*
X139799047Y-87574819D01*
X139799047Y-87574819D02*
X139799047Y-86574819D01*
X139799047Y-86574819D02*
X139465714Y-86574819D01*
X139465714Y-86574819D02*
X139370476Y-86622438D01*
X139370476Y-86622438D02*
X139322857Y-86670057D01*
X139322857Y-86670057D02*
X139275238Y-86765295D01*
X139275238Y-86765295D02*
X139275238Y-86860533D01*
X139275238Y-86860533D02*
X139322857Y-86955771D01*
X139322857Y-86955771D02*
X139370476Y-87003390D01*
X139370476Y-87003390D02*
X139465714Y-87051009D01*
X139465714Y-87051009D02*
X139799047Y-87051009D01*
X138941904Y-86574819D02*
X138370476Y-86574819D01*
X138656190Y-87574819D02*
X138656190Y-86574819D01*
X137513333Y-87574819D02*
X138084761Y-87574819D01*
X137799047Y-87574819D02*
X137799047Y-86574819D01*
X137799047Y-86574819D02*
X137894285Y-86717676D01*
X137894285Y-86717676D02*
X137989523Y-86812914D01*
X137989523Y-86812914D02*
X138084761Y-86860533D01*
D11*
%TO.C,BT1*%
X130834629Y-87611789D02*
G75*
G02*
X127988000Y-83110000I7845391J8111801D01*
G01*
X127988000Y-75890000D02*
G75*
G02*
X130834629Y-71388211I10692000J-3610000D01*
G01*
X149372000Y-83110000D02*
G75*
G02*
X146525371Y-87611789I-10691995J3609996D01*
G01*
X146525371Y-71388211D02*
G75*
G02*
X149371999Y-75890000I-7845391J-8111799D01*
G01*
X124370000Y-83110000D02*
X127988000Y-83110000D01*
X124370000Y-81400000D02*
X124370000Y-83110000D01*
X124370000Y-77600000D02*
X124370000Y-75890000D01*
X127988000Y-75890000D02*
X124370000Y-75890000D01*
X130832700Y-87610000D02*
X134820000Y-87610000D01*
X137020000Y-85410000D02*
X134820000Y-87610000D01*
X137020000Y-85410000D02*
X140340000Y-85410000D01*
X140340000Y-85410000D02*
X142540000Y-87610000D01*
X142540000Y-87610000D02*
X146527300Y-87610000D01*
X146527300Y-71390000D02*
X130832700Y-71390000D01*
X149372000Y-83110000D02*
X152990000Y-83110000D01*
X152990000Y-81400000D02*
X152990000Y-83110000D01*
X152990000Y-77600000D02*
X152990000Y-75890000D01*
X152990000Y-75890000D02*
X149372000Y-75890000D01*
%TD*%
M02*
