%TF.GenerationSoftware,KiCad,Pcbnew,9.0.7*%
%TF.CreationDate,2026-01-18T00:15:26-06:00*%
%TF.ProjectId,Beginning Project KiCad,42656769-6e6e-4696-9e67-2050726f6a65,0*%
%TF.SameCoordinates,Original*%
%TF.FileFunction,Copper,L2,Bot*%
%TF.FilePolarity,Positive*%
%FSLAX46Y46*%
G04 Gerber Fmt 4.6, Leading zero omitted, Abs format (unit mm)*
G04 Created by KiCad (PCBNEW 9.0.7) date 2026-01-18 00:15:26*
%MOMM*%
%LPD*%
G01*
G04 APERTURE LIST*
%TA.AperFunction,ComponentPad*%
%ADD10C,1.600000*%
%TD*%
%TA.AperFunction,SMDPad,CuDef*%
%ADD11R,2.540000X3.510000*%
%TD*%
%TA.AperFunction,ComponentPad*%
%ADD12C,1.800000*%
%TD*%
%TA.AperFunction,ComponentPad*%
%ADD13R,1.800000X1.800000*%
%TD*%
%TA.AperFunction,ViaPad*%
%ADD14C,0.600000*%
%TD*%
%TA.AperFunction,Conductor*%
%ADD15C,0.200000*%
%TD*%
G04 APERTURE END LIST*
D10*
%TO.P,R1,1*%
%TO.N,VCC*%
X160000000Y-103000000D03*
%TO.P,R1,2*%
%TO.N,/led*%
X147300000Y-103000000D03*
%TD*%
D11*
%TO.P,BT1,2,-*%
%TO.N,GND*%
X124000000Y-79500000D03*
%TO.P,BT1,1,+*%
%TO.N,VCC*%
X153360000Y-79500000D03*
%TD*%
D12*
%TO.P,D2,2,A*%
%TO.N,/led*%
X124000000Y-103540000D03*
D13*
%TO.P,D2,1,K*%
%TO.N,GND*%
X124000000Y-101000000D03*
%TD*%
D14*
%TO.N,VCC*%
X153500000Y-91500000D03*
%TD*%
D15*
%TO.N,VCC*%
X153360000Y-91360000D02*
X153500000Y-91500000D01*
X153360000Y-79500000D02*
X153360000Y-91360000D01*
%TO.N,GND*%
X124000000Y-79500000D02*
X124000000Y-101000000D01*
%TD*%
%TA.AperFunction,Conductor*%
%TO.N,GND*%
G36*
X195442539Y-65020185D02*
G01*
X195488294Y-65072989D01*
X195499500Y-65124500D01*
X195499500Y-113375500D01*
X195479815Y-113442539D01*
X195427011Y-113488294D01*
X195375500Y-113499500D01*
X113624500Y-113499500D01*
X113557461Y-113479815D01*
X113511706Y-113427011D01*
X113500500Y-113375500D01*
X113500500Y-103429778D01*
X122599500Y-103429778D01*
X122599500Y-103650221D01*
X122633985Y-103867952D01*
X122702103Y-104077603D01*
X122702104Y-104077606D01*
X122802187Y-104274025D01*
X122931752Y-104452358D01*
X122931756Y-104452363D01*
X123087636Y-104608243D01*
X123087641Y-104608247D01*
X123243192Y-104721260D01*
X123265978Y-104737815D01*
X123394375Y-104803237D01*
X123462393Y-104837895D01*
X123462396Y-104837896D01*
X123567221Y-104871955D01*
X123672049Y-104906015D01*
X123889778Y-104940500D01*
X123889779Y-104940500D01*
X124110221Y-104940500D01*
X124110222Y-104940500D01*
X124327951Y-104906015D01*
X124537606Y-104837895D01*
X124734022Y-104737815D01*
X124912365Y-104608242D01*
X125068242Y-104452365D01*
X125197815Y-104274022D01*
X125297895Y-104077606D01*
X125366015Y-103867951D01*
X125400500Y-103650222D01*
X125400500Y-103429778D01*
X125366015Y-103212049D01*
X125297895Y-103002394D01*
X125297893Y-103002389D01*
X125270726Y-102949072D01*
X125270725Y-102949071D01*
X125244524Y-102897648D01*
X145999500Y-102897648D01*
X145999500Y-103102351D01*
X146031522Y-103304534D01*
X146094781Y-103499223D01*
X146158691Y-103624653D01*
X146171719Y-103650221D01*
X146187715Y-103681613D01*
X146308028Y-103847213D01*
X146452786Y-103991971D01*
X146570651Y-104077603D01*
X146618390Y-104112287D01*
X146734607Y-104171503D01*
X146800776Y-104205218D01*
X146800778Y-104205218D01*
X146800781Y-104205220D01*
X146905137Y-104239127D01*
X146995465Y-104268477D01*
X147096557Y-104284488D01*
X147197648Y-104300500D01*
X147197649Y-104300500D01*
X147402351Y-104300500D01*
X147402352Y-104300500D01*
X147604534Y-104268477D01*
X147799219Y-104205220D01*
X147981610Y-104112287D01*
X148074590Y-104044732D01*
X148147213Y-103991971D01*
X148147215Y-103991968D01*
X148147219Y-103991966D01*
X148291966Y-103847219D01*
X148291968Y-103847215D01*
X148291971Y-103847213D01*
X148344732Y-103774590D01*
X148412287Y-103681610D01*
X148505220Y-103499219D01*
X148568477Y-103304534D01*
X148600500Y-103102352D01*
X148600500Y-102897648D01*
X158699500Y-102897648D01*
X158699500Y-103102351D01*
X158731522Y-103304534D01*
X158794781Y-103499223D01*
X158858691Y-103624653D01*
X158871719Y-103650221D01*
X158887715Y-103681613D01*
X159008028Y-103847213D01*
X159152786Y-103991971D01*
X159270651Y-104077603D01*
X159318390Y-104112287D01*
X159434607Y-104171503D01*
X159500776Y-104205218D01*
X159500778Y-104205218D01*
X159500781Y-104205220D01*
X159605137Y-104239127D01*
X159695465Y-104268477D01*
X159796557Y-104284488D01*
X159897648Y-104300500D01*
X159897649Y-104300500D01*
X160102351Y-104300500D01*
X160102352Y-104300500D01*
X160304534Y-104268477D01*
X160499219Y-104205220D01*
X160681610Y-104112287D01*
X160774590Y-104044732D01*
X160847213Y-103991971D01*
X160847215Y-103991968D01*
X160847219Y-103991966D01*
X160991966Y-103847219D01*
X160991968Y-103847215D01*
X160991971Y-103847213D01*
X161044732Y-103774590D01*
X161112287Y-103681610D01*
X161205220Y-103499219D01*
X161268477Y-103304534D01*
X161300500Y-103102352D01*
X161300500Y-102897648D01*
X161268477Y-102695466D01*
X161205220Y-102500781D01*
X161205218Y-102500778D01*
X161205218Y-102500776D01*
X161148839Y-102390128D01*
X161112287Y-102318390D01*
X161067821Y-102257187D01*
X160991971Y-102152786D01*
X160847213Y-102008028D01*
X160681613Y-101887715D01*
X160681612Y-101887714D01*
X160681610Y-101887713D01*
X160624653Y-101858691D01*
X160499223Y-101794781D01*
X160304534Y-101731522D01*
X160129995Y-101703878D01*
X160102352Y-101699500D01*
X159897648Y-101699500D01*
X159873329Y-101703351D01*
X159695465Y-101731522D01*
X159500776Y-101794781D01*
X159318386Y-101887715D01*
X159152786Y-102008028D01*
X159008028Y-102152786D01*
X158887715Y-102318386D01*
X158794781Y-102500776D01*
X158731522Y-102695465D01*
X158699500Y-102897648D01*
X148600500Y-102897648D01*
X148568477Y-102695466D01*
X148505220Y-102500781D01*
X148505218Y-102500778D01*
X148505218Y-102500776D01*
X148448839Y-102390128D01*
X148412287Y-102318390D01*
X148367821Y-102257187D01*
X148291971Y-102152786D01*
X148147213Y-102008028D01*
X147981613Y-101887715D01*
X147981612Y-101887714D01*
X147981610Y-101887713D01*
X147924653Y-101858691D01*
X147799223Y-101794781D01*
X147604534Y-101731522D01*
X147429995Y-101703878D01*
X147402352Y-101699500D01*
X147197648Y-101699500D01*
X147173329Y-101703351D01*
X146995465Y-101731522D01*
X146800776Y-101794781D01*
X146618386Y-101887715D01*
X146452786Y-102008028D01*
X146308028Y-102152786D01*
X146187715Y-102318386D01*
X146094781Y-102500776D01*
X146031522Y-102695465D01*
X145999500Y-102897648D01*
X125244524Y-102897648D01*
X125197815Y-102805978D01*
X125117523Y-102695465D01*
X125068247Y-102627641D01*
X125068243Y-102627636D01*
X125017683Y-102577076D01*
X124984198Y-102515753D01*
X124989182Y-102446061D01*
X125031054Y-102390128D01*
X125062031Y-102373213D01*
X125142086Y-102343354D01*
X125142093Y-102343350D01*
X125257187Y-102257190D01*
X125257190Y-102257187D01*
X125343350Y-102142093D01*
X125343354Y-102142086D01*
X125393596Y-102007379D01*
X125393598Y-102007372D01*
X125399999Y-101947844D01*
X125400000Y-101947827D01*
X125400000Y-101250000D01*
X124375278Y-101250000D01*
X124419333Y-101173694D01*
X124450000Y-101059244D01*
X124450000Y-100940756D01*
X124419333Y-100826306D01*
X124375278Y-100750000D01*
X125400000Y-100750000D01*
X125400000Y-100052172D01*
X125399999Y-100052155D01*
X125393598Y-99992627D01*
X125393596Y-99992620D01*
X125343354Y-99857913D01*
X125343350Y-99857906D01*
X125257190Y-99742812D01*
X125257187Y-99742809D01*
X125142093Y-99656649D01*
X125142086Y-99656645D01*
X125007379Y-99606403D01*
X125007372Y-99606401D01*
X124947844Y-99600000D01*
X124250000Y-99600000D01*
X124250000Y-100624722D01*
X124173694Y-100580667D01*
X124059244Y-100550000D01*
X123940756Y-100550000D01*
X123826306Y-100580667D01*
X123750000Y-100624722D01*
X123750000Y-99600000D01*
X123052155Y-99600000D01*
X122992627Y-99606401D01*
X122992620Y-99606403D01*
X122857913Y-99656645D01*
X122857906Y-99656649D01*
X122742812Y-99742809D01*
X122742809Y-99742812D01*
X122656649Y-99857906D01*
X122656645Y-99857913D01*
X122606403Y-99992620D01*
X122606401Y-99992627D01*
X122600000Y-100052155D01*
X122600000Y-100750000D01*
X123624722Y-100750000D01*
X123580667Y-100826306D01*
X123550000Y-100940756D01*
X123550000Y-101059244D01*
X123580667Y-101173694D01*
X123624722Y-101250000D01*
X122600000Y-101250000D01*
X122600000Y-101947844D01*
X122606401Y-102007372D01*
X122606403Y-102007379D01*
X122656645Y-102142086D01*
X122656649Y-102142093D01*
X122742809Y-102257187D01*
X122742812Y-102257190D01*
X122857906Y-102343350D01*
X122857913Y-102343354D01*
X122937968Y-102373213D01*
X122993902Y-102415084D01*
X123018319Y-102480549D01*
X123003467Y-102548822D01*
X122982317Y-102577075D01*
X122931756Y-102627636D01*
X122931752Y-102627641D01*
X122802187Y-102805974D01*
X122702104Y-103002393D01*
X122702103Y-103002396D01*
X122633985Y-103212047D01*
X122599500Y-103429778D01*
X113500500Y-103429778D01*
X113500500Y-81302844D01*
X122230000Y-81302844D01*
X122236401Y-81362372D01*
X122236403Y-81362379D01*
X122286645Y-81497086D01*
X122286649Y-81497093D01*
X122372809Y-81612187D01*
X122372812Y-81612190D01*
X122487906Y-81698350D01*
X122487913Y-81698354D01*
X122622620Y-81748596D01*
X122622627Y-81748598D01*
X122682155Y-81754999D01*
X122682172Y-81755000D01*
X123750000Y-81755000D01*
X124250000Y-81755000D01*
X125317828Y-81755000D01*
X125317844Y-81754999D01*
X125377372Y-81748598D01*
X125377379Y-81748596D01*
X125512086Y-81698354D01*
X125512093Y-81698350D01*
X125627187Y-81612190D01*
X125627190Y-81612187D01*
X125713350Y-81497093D01*
X125713354Y-81497086D01*
X125763596Y-81362379D01*
X125763598Y-81362372D01*
X125769999Y-81302844D01*
X125770000Y-81302827D01*
X125770000Y-79750000D01*
X124250000Y-79750000D01*
X124250000Y-81755000D01*
X123750000Y-81755000D01*
X123750000Y-79750000D01*
X122230000Y-79750000D01*
X122230000Y-81302844D01*
X113500500Y-81302844D01*
X113500500Y-77697155D01*
X122230000Y-77697155D01*
X122230000Y-79250000D01*
X123750000Y-79250000D01*
X124250000Y-79250000D01*
X125770000Y-79250000D01*
X125770000Y-77697164D01*
X125769997Y-77697135D01*
X151589500Y-77697135D01*
X151589500Y-81302870D01*
X151589501Y-81302876D01*
X151595908Y-81362483D01*
X151646202Y-81497328D01*
X151646206Y-81497335D01*
X151732452Y-81612544D01*
X151732455Y-81612547D01*
X151847664Y-81698793D01*
X151847671Y-81698797D01*
X151892618Y-81715561D01*
X151982517Y-81749091D01*
X152042127Y-81755500D01*
X152635500Y-81755499D01*
X152702539Y-81775183D01*
X152748294Y-81827987D01*
X152759500Y-81879499D01*
X152759500Y-91171254D01*
X152750061Y-91218706D01*
X152730263Y-91266501D01*
X152730260Y-91266511D01*
X152699500Y-91421153D01*
X152699500Y-91578846D01*
X152730261Y-91733489D01*
X152730264Y-91733501D01*
X152790602Y-91879172D01*
X152790609Y-91879185D01*
X152878210Y-92010288D01*
X152878213Y-92010292D01*
X152989707Y-92121786D01*
X152989711Y-92121789D01*
X153120814Y-92209390D01*
X153120827Y-92209397D01*
X153266498Y-92269735D01*
X153266503Y-92269737D01*
X153421153Y-92300499D01*
X153421156Y-92300500D01*
X153421158Y-92300500D01*
X153578844Y-92300500D01*
X153578845Y-92300499D01*
X153733497Y-92269737D01*
X153879179Y-92209394D01*
X154010289Y-92121789D01*
X154121789Y-92010289D01*
X154209394Y-91879179D01*
X154269737Y-91733497D01*
X154300500Y-91578842D01*
X154300500Y-91421158D01*
X154300500Y-91421155D01*
X154300499Y-91421153D01*
X154269737Y-91266503D01*
X154230284Y-91171254D01*
X154209397Y-91120827D01*
X154209390Y-91120814D01*
X154121789Y-90989711D01*
X154121786Y-90989707D01*
X154010295Y-90878216D01*
X154005834Y-90874555D01*
X153966500Y-90816809D01*
X153960500Y-90778702D01*
X153960500Y-81879499D01*
X153980185Y-81812460D01*
X154032989Y-81766705D01*
X154084500Y-81755499D01*
X154677871Y-81755499D01*
X154677872Y-81755499D01*
X154737483Y-81749091D01*
X154872331Y-81698796D01*
X154987546Y-81612546D01*
X155073796Y-81497331D01*
X155124091Y-81362483D01*
X155130500Y-81302873D01*
X155130499Y-77697128D01*
X155124091Y-77637517D01*
X155073884Y-77502906D01*
X155073797Y-77502671D01*
X155073793Y-77502664D01*
X154987547Y-77387455D01*
X154987544Y-77387452D01*
X154872335Y-77301206D01*
X154872328Y-77301202D01*
X154737482Y-77250908D01*
X154737483Y-77250908D01*
X154677883Y-77244501D01*
X154677881Y-77244500D01*
X154677873Y-77244500D01*
X154677864Y-77244500D01*
X152042129Y-77244500D01*
X152042123Y-77244501D01*
X151982516Y-77250908D01*
X151847671Y-77301202D01*
X151847664Y-77301206D01*
X151732455Y-77387452D01*
X151732452Y-77387455D01*
X151646206Y-77502664D01*
X151646202Y-77502671D01*
X151595908Y-77637517D01*
X151589501Y-77697116D01*
X151589501Y-77697123D01*
X151589500Y-77697135D01*
X125769997Y-77697135D01*
X125763598Y-77637627D01*
X125763596Y-77637620D01*
X125713354Y-77502913D01*
X125713350Y-77502906D01*
X125627190Y-77387812D01*
X125627187Y-77387809D01*
X125512093Y-77301649D01*
X125512086Y-77301645D01*
X125377379Y-77251403D01*
X125377372Y-77251401D01*
X125317844Y-77245000D01*
X124250000Y-77245000D01*
X124250000Y-79250000D01*
X123750000Y-79250000D01*
X123750000Y-77245000D01*
X122682155Y-77245000D01*
X122622627Y-77251401D01*
X122622620Y-77251403D01*
X122487913Y-77301645D01*
X122487906Y-77301649D01*
X122372812Y-77387809D01*
X122372809Y-77387812D01*
X122286649Y-77502906D01*
X122286645Y-77502913D01*
X122236403Y-77637620D01*
X122236401Y-77637627D01*
X122230000Y-77697155D01*
X113500500Y-77697155D01*
X113500500Y-65124500D01*
X113520185Y-65057461D01*
X113572989Y-65011706D01*
X113624500Y-65000500D01*
X195375500Y-65000500D01*
X195442539Y-65020185D01*
G37*
%TD.AperFunction*%
%TD*%
M02*
